<svg width="57" height="56" viewBox="0 0 57 56" fill="none" xmlns="http://www.w3.org/2000/svg">
<path fill-rule="evenodd" clip-rule="evenodd" d="M23.3867 0.0825958C23.5838 0.0840199 23.7355 0.170243 23.8415 0.341524C23.8848 0.255172 23.9282 0.168948 23.9715 0.0825958C24.8114 2.78244 25.5911 5.50119 26.3104 8.23884C26.4154 8.508 26.3937 8.76693 26.2455 9.01563C24.9289 6.15913 23.976 3.18145 23.3867 0.0825958Z" fill="#0A0A0A"/>
<path fill-rule="evenodd" clip-rule="evenodd" d="M34.5619 3.06027C34.3887 4.35491 34.3887 5.64956 34.5619 6.9442C34.6311 7.64965 34.4795 8.29697 34.1071 8.88616C33.8571 8.29451 33.7489 7.66881 33.7823 7.00893C33.7572 5.38959 33.8222 3.77129 33.9772 2.15402C34.0034 1.92668 34.0684 1.71099 34.1721 1.5067C34.2601 2.03983 34.39 2.55769 34.5619 3.06027Z" fill="#191919"/>
<path fill-rule="evenodd" clip-rule="evenodd" d="M46.257 4.09599C46.4244 4.49694 46.3594 4.88534 46.0621 5.26117C45.1764 6.16742 44.3535 7.11691 43.5932 8.10939C43.2699 8.39977 42.9235 8.6587 42.5537 8.88617C41.9228 9.99011 41.1431 10.9826 40.2147 11.8639C39.9773 11.6161 39.9773 11.3571 40.2147 11.0871C40.9222 10.2955 41.5287 9.43251 42.0339 8.49778C43.4206 7.00829 44.8285 5.54094 46.257 4.09599Z" fill="#0D0D0D"/>
<path fill-rule="evenodd" clip-rule="evenodd" d="M15.5902 5.39063C15.7269 5.37134 15.8568 5.39283 15.98 5.45536C16.4348 5.90849 16.8896 6.36161 17.3444 6.81474C17.4072 6.93747 17.4287 7.06693 17.4094 7.20313C17.048 7.37441 16.7016 7.35279 16.3698 7.1384C16.0398 6.85293 15.7582 6.52927 15.5252 6.16741C15.4371 5.8958 15.4588 5.63687 15.5902 5.39063Z" fill="#0C0C0C"/>
<path fill-rule="evenodd" clip-rule="evenodd" d="M8.83301 6.55582C9.38774 6.58611 9.90751 6.7372 10.3923 7.00894C11.2674 7.74624 12.2202 8.35045 13.2511 8.82144C14.1824 9.66296 15.1136 10.5045 16.0449 11.346C16.1248 11.5552 16.2547 11.7278 16.4347 11.8639C16.4984 12.0312 16.5201 12.204 16.4997 12.3817C16.0542 12.3756 15.6644 12.2247 15.3302 11.9286C14.339 11.157 13.386 10.3371 12.4714 9.46876C11.2566 8.90624 10.1738 8.15108 9.22284 7.20314C9.03416 7.01671 8.90422 6.80102 8.83301 6.55582Z" fill="#0D0D0D"/>
<path fill-rule="evenodd" clip-rule="evenodd" d="M37.1609 6.29688C37.3097 6.46427 37.2663 6.61523 37.031 6.75C37.2353 7.16299 37.127 7.48665 36.7061 7.72098C36.5609 7.14836 36.7125 6.67362 37.1609 6.29688Z" fill="#202020"/>
<path fill-rule="evenodd" clip-rule="evenodd" d="M25.0763 7.20312C25.2515 7.33608 25.3164 7.50866 25.2712 7.72098C25.1168 7.58336 25.0519 7.41066 25.0763 7.20312Z" fill="#2D2D2D"/>
<path fill-rule="evenodd" clip-rule="evenodd" d="M30.144 8.23884C30.3158 8.21683 30.4675 8.25994 30.5988 8.3683C30.9402 9.07764 31.0486 9.81131 30.9237 10.5692C30.7228 10.477 30.5929 10.3261 30.5339 10.1161C30.2904 9.51238 30.1604 8.88668 30.144 8.23884Z" fill="#0C0C0C"/>
<path fill-rule="evenodd" clip-rule="evenodd" d="M20.2681 8.49777C20.556 8.58879 20.7942 8.76136 20.9828 9.01563C21.4945 9.6469 21.906 10.3373 22.2172 11.0871C22.1739 11.1734 22.1305 11.2596 22.0873 11.346C21.2187 10.5651 20.6123 9.61557 20.2681 8.49777Z" fill="#131313"/>
<path fill-rule="evenodd" clip-rule="evenodd" d="M45.8673 10.1808C46.0881 10.1601 46.3047 10.1816 46.517 10.2455C46.2209 10.3068 45.961 10.4362 45.7373 10.6339C46.0654 10.7499 46.347 10.6852 46.582 10.4397C46.5403 11.1273 46.1938 11.3431 45.5424 11.0871C45.4335 10.7011 45.5418 10.3991 45.8673 10.1808Z" fill="#171717"/>
<path fill-rule="evenodd" clip-rule="evenodd" d="M35.2118 12.2522C35.4104 12.2544 35.4754 12.3408 35.4068 12.5112C34.629 12.9097 34.694 13.1686 35.6017 13.288C35.5809 13.068 35.6025 12.8522 35.6666 12.6406C35.7648 13.0035 35.7215 13.3488 35.5367 13.6764C35.2421 13.8621 34.9822 13.819 34.757 13.5469C34.5726 12.9749 34.7243 12.5434 35.2118 12.2522Z" fill="#151515"/>
<path fill-rule="evenodd" clip-rule="evenodd" d="M18.8387 13.4174C19.2418 13.3726 19.61 13.459 19.9433 13.6763C19.9747 14.6789 19.5415 14.9378 18.6438 14.4531C18.5431 14.1361 18.6514 13.9203 18.9687 13.8058C19.2257 14.6366 19.3991 14.5935 19.4885 13.6763C19.1921 13.7311 18.9754 13.6448 18.8387 13.4174Z" fill="#1D1D1D"/>
<path fill-rule="evenodd" clip-rule="evenodd" d="M54.4435 13.4174C55.05 13.4684 55.0934 13.7059 54.5735 14.1295C53.5556 14.7012 52.5593 15.3053 51.5848 15.942C50.0223 16.5156 48.4847 17.1413 46.9718 17.8192C46.9068 17.7761 46.8418 17.7329 46.7769 17.6897C47.5065 16.9856 48.3294 16.403 49.2458 15.942C49.7893 15.7095 50.3524 15.5369 50.935 15.4241C52.0745 14.6845 53.244 14.0155 54.4435 13.4174Z" fill="#101010"/>
<path fill-rule="evenodd" clip-rule="evenodd" d="M0.516829 14.8415C1.05246 14.867 1.57223 14.9749 2.07615 15.1652C3.77893 16.128 5.51147 17.0343 7.27389 17.8839C8.0043 18.1198 8.74069 18.3356 9.48293 18.5313C9.79596 18.6867 10.0559 18.9024 10.2626 19.1786C10.0894 19.2217 9.91603 19.2649 9.74282 19.308C10.0099 19.397 10.2263 19.5481 10.3925 19.7612C10.3493 19.8043 10.3059 19.8475 10.2626 19.8906C6.96216 18.5267 3.75684 16.9948 0.646773 15.2946C0.53801 15.1638 0.494739 15.0127 0.516829 14.8415Z" fill="#0A0A0A"/>
<path fill-rule="evenodd" clip-rule="evenodd" d="M43.3983 14.971C43.5121 14.954 43.5988 14.9971 43.6582 15.1004C43.1908 15.933 42.5628 16.6235 41.774 17.1719C41.6841 17.1039 41.6191 17.0176 41.5791 16.9129C42.0123 16.0933 42.6186 15.446 43.3983 14.971Z" fill="#1A1A1A"/>
<path fill-rule="evenodd" clip-rule="evenodd" d="M11.4321 16.1362C11.9006 16.1749 12.3338 16.3258 12.7316 16.5893C13.2513 16.9346 13.7711 17.2797 14.2909 17.625C14.5527 17.8263 14.596 18.0638 14.4208 18.3371C13.5112 17.7545 12.6016 17.1719 11.692 16.5893C11.5201 16.4837 11.4336 16.3326 11.4321 16.1362Z" fill="#101010"/>
<path fill-rule="evenodd" clip-rule="evenodd" d="M50.5452 18.8549C50.766 18.8342 50.9826 18.8557 51.1949 18.9196C50.7977 19.2344 50.3646 19.3423 49.8955 19.2433C50.1093 19.0885 50.3258 18.959 50.5452 18.8549Z" fill="#121212"/>
<path fill-rule="evenodd" clip-rule="evenodd" d="M49.1157 21.0558C49.8555 20.9414 49.9854 21.0923 49.5055 21.5089C48.0698 22.0967 46.6188 22.6362 45.1524 23.1272C45.0657 22.9978 45.0657 22.8683 45.1524 22.7388C45.3155 22.6468 45.467 22.539 45.6072 22.4152C46.8152 22.0219 47.9847 21.5687 49.1157 21.0558Z" fill="#141414"/>
<path fill-rule="evenodd" clip-rule="evenodd" d="M6.4942 21.8326C7.28971 21.8041 8.02597 21.9983 8.70324 22.4152C8.95286 22.5759 8.99613 22.77 8.83318 22.9978C8.31276 22.6632 7.74971 22.5123 7.14391 22.5447C7.41524 22.678 7.69682 22.7858 7.98855 22.8683C8.4045 23.1512 8.4045 23.4101 7.98855 23.6451C7.3795 23.5574 6.85973 23.2985 6.42923 22.8683C6.33541 22.5109 6.35711 22.1657 6.4942 21.8326Z" fill="#121212"/>
<path fill-rule="evenodd" clip-rule="evenodd" d="M51.195 25.7165C52.6222 25.8052 54.0515 25.8699 55.4831 25.9107C55.9267 25.9492 56.3598 26.0355 56.7826 26.1696C53.756 26.5575 50.7241 26.7301 47.6865 26.6875C47.2699 26.6066 47.14 26.3909 47.2967 26.0402C48.6195 25.9743 49.9189 25.8663 51.195 25.7165Z" fill="#070707"/>
<path fill-rule="evenodd" clip-rule="evenodd" d="M7.9237 27.3996C8.74391 27.5457 9.56684 27.6752 10.3926 27.788C10.3926 28.0469 10.3926 28.3058 10.3926 28.5647C9.2872 28.5537 8.20438 28.4027 7.14404 28.1116C7.30205 27.8864 7.51854 27.7569 7.79376 27.7232C7.89148 27.6364 7.93488 27.5285 7.9237 27.3996Z" fill="#101010"/>
<path fill-rule="evenodd" clip-rule="evenodd" d="M44.8276 29.2121C45.143 29.215 45.4462 29.2798 45.7372 29.4063C45.8608 29.4992 45.8824 29.6071 45.8022 29.7299C45.4618 29.5457 45.1369 29.5672 44.8276 29.7947C45.1369 30.0221 45.4618 30.0436 45.8022 29.8594C45.8615 30.1459 45.7315 30.2754 45.4124 30.2478C44.7243 30.1834 44.5294 29.8382 44.8276 29.2121Z" fill="#1E1E1E"/>
<path fill-rule="evenodd" clip-rule="evenodd" d="M9.35318 31.4129C9.91792 31.3915 10.481 31.4131 11.0425 31.4777C11.1291 31.564 11.2157 31.6503 11.3023 31.7366C9.6796 32.2539 8.03361 32.664 6.36448 32.9665C6.33811 32.7218 6.42465 32.5276 6.62437 32.3839C7.54853 32.0508 8.45813 31.7272 9.35318 31.4129Z" fill="#080808"/>
<path fill-rule="evenodd" clip-rule="evenodd" d="M50.6748 32.1897C50.7981 32.1053 50.9496 32.0621 51.1296 32.0603C52.0976 32.2852 53.0721 32.4793 54.0533 32.6429C54.7457 32.7934 55.3954 33.0524 56.0025 33.4196C54.198 33.1537 52.422 32.7437 50.6748 32.1897Z" fill="#141414"/>
<path fill-rule="evenodd" clip-rule="evenodd" d="M46.7766 34.6496C48.1975 34.8554 49.5402 35.3085 50.8048 36.0089C51.6712 36.2679 52.5374 36.5268 53.4037 36.7857C54.132 37.1955 54.0888 37.3682 53.2738 37.3036C51.0886 36.7486 48.9661 36.0149 46.9065 35.1027C46.7978 34.9718 46.7545 34.8207 46.7766 34.6496Z" fill="#0E0E0E"/>
<path fill-rule="evenodd" clip-rule="evenodd" d="M8.44316 34.779C8.96475 34.7575 9.48453 34.7791 10.0025 34.8437C10.1624 34.9969 10.1624 35.1479 10.0025 35.2969C8.37169 36.0759 6.70413 36.7663 4.99966 37.3683C4.67688 37.0694 4.37372 37.1125 4.09005 37.4978C4.03054 37.1617 4.13878 36.8811 4.41491 36.6562C5.84741 36.1894 7.19025 35.5636 8.44316 34.779Z" fill="#0A0A0A"/>
<path fill-rule="evenodd" clip-rule="evenodd" d="M11.692 38.404C11.933 38.3745 12.0413 38.4609 12.0168 38.6629C11.5577 38.7934 11.1462 39.0093 10.7824 39.3103C11.3919 39.407 11.8901 39.1913 12.2767 38.6629C12.1576 39.5995 11.6162 40.0095 10.6524 39.8929C10.5126 39.6694 10.4909 39.4321 10.5875 39.1808C10.8892 38.806 11.2573 38.5471 11.692 38.404Z" fill="#131313"/>
<path fill-rule="evenodd" clip-rule="evenodd" d="M46.127 39.1808C46.1575 39.1035 46.2225 39.0604 46.3219 39.0513C47.1679 39.3535 48.0126 39.6772 48.8558 40.0223C50.2632 40.9609 51.6926 41.8672 53.1439 42.7411C53.366 42.9891 53.5393 43.2696 53.6637 43.5826C53.5984 43.7148 53.5119 43.7364 53.4038 43.6473C52.1466 42.8481 50.8472 42.1145 49.5055 41.4464C48.6594 40.8738 47.8364 40.2697 47.0366 39.6339C46.7299 39.4812 46.4267 39.3301 46.127 39.1808Z" fill="#101010"/>
<path fill-rule="evenodd" clip-rule="evenodd" d="M52.3643 39.3103C53.848 39.6932 55.1257 40.4268 56.1976 41.5112C56.2843 41.5975 56.2843 41.6837 56.1976 41.7701C54.9425 41.2091 53.7513 40.5402 52.6241 39.7634C52.4522 39.6578 52.3657 39.5067 52.3643 39.3103Z" fill="#141414"/>
<path fill-rule="evenodd" clip-rule="evenodd" d="M12.8616 40.6049C13.1027 40.5754 13.2109 40.6617 13.1865 40.8638C11.8351 42.1237 10.5789 43.4614 9.41811 44.8772C8.29397 45.8893 7.18945 46.925 6.10455 47.9844C6.06128 47.9413 6.01788 47.898 5.97461 47.8549C6.28621 47.1045 6.69762 46.414 7.20907 45.7835C8.47186 44.4548 9.74973 43.1387 11.0424 41.8348C11.6348 41.3899 12.2413 40.9798 12.8616 40.6049Z" fill="#0A0A0A"/>
<path fill-rule="evenodd" clip-rule="evenodd" d="M45.9968 42.5469C45.9975 43 45.7809 43.1942 45.3471 43.1295C44.8112 42.8162 44.573 42.363 44.6324 41.7701C44.9292 41.4485 45.2541 41.4269 45.607 41.7054C46.1607 41.9511 46.4423 42.361 46.4516 42.9353C46.3166 42.7786 46.165 42.6492 45.9968 42.5469Z" fill="#090909"/>
<path fill-rule="evenodd" clip-rule="evenodd" d="M17.6695 42.6763C17.9202 42.6415 18.1367 42.7062 18.3192 42.8705C17.4746 44.1436 16.63 45.4167 15.7853 46.6897C15.5919 46.9269 15.3537 47.0348 15.0707 47.0134C14.9136 46.6218 14.9785 46.2549 15.2656 45.9129C15.9949 44.777 16.7962 43.6981 17.6695 42.6763Z" fill="#0E0E0E"/>
<path fill-rule="evenodd" clip-rule="evenodd" d="M40.9294 43.5826C40.8071 43.3281 40.6772 43.0691 40.5396 42.8058C40.652 42.6656 40.7819 42.6441 40.9294 42.7411C42.7404 44.4591 44.3647 46.3363 45.8023 48.3728C45.9539 48.6748 46.1054 48.977 46.2571 49.279C46.1564 49.5347 45.983 49.6427 45.7373 49.6027C44.8864 48.6257 44.0851 47.6117 43.3333 46.5603C42.2809 45.8358 41.4363 44.9295 40.7994 43.8415C40.805 43.7229 40.8483 43.6366 40.9294 43.5826Z" fill="#0A0A0A"/>
<path fill-rule="evenodd" clip-rule="evenodd" d="M35.2118 44.8772C35.4984 46.2265 35.715 47.6074 35.8616 49.0201C35.8631 49.3284 35.7332 49.5442 35.4717 49.6674C35.3029 49.591 35.1947 49.4616 35.1469 49.279C34.9607 47.9459 34.9173 46.6081 35.0169 45.2656C35.0836 45.1327 35.1486 45.0032 35.2118 44.8772Z" fill="#181818"/>
<path fill-rule="evenodd" clip-rule="evenodd" d="M30.2737 46.8192C30.4455 46.7972 30.5972 46.8403 30.7285 46.9487C30.8481 47.2854 30.9348 47.6307 30.9884 47.9844C31.0751 49.3221 31.0751 50.66 30.9884 51.9978C30.8294 52.3827 30.5695 52.469 30.2088 52.2567C30.1538 50.4436 30.1755 48.6311 30.2737 46.8192Z" fill="#0B0B0B"/>
<path fill-rule="evenodd" clip-rule="evenodd" d="M19.3588 47.2076C19.6019 46.7164 19.9917 46.3711 20.5283 46.1719C20.4945 46.8187 20.1913 47.3582 19.6187 47.7902C19.4506 47.8536 19.2773 47.8752 19.0989 47.8549C19.0495 47.5703 19.1362 47.3545 19.3588 47.2076Z" fill="#141414"/>
<path fill-rule="evenodd" clip-rule="evenodd" d="M22.6072 47.596C22.7622 47.6568 22.8489 47.7863 22.8671 47.9844C22.4307 49.8276 22.0626 51.6832 21.7626 53.5514C21.6095 54.1184 21.4361 54.6794 21.2428 55.2344C21.189 55.2936 21.124 55.3368 21.0479 55.3639C20.8611 55.1669 20.7745 54.9295 20.788 54.6518C21.1067 52.2212 21.7131 49.8693 22.6072 47.596Z" fill="#121212"/>
<path fill-rule="evenodd" clip-rule="evenodd" d="M39.5001 49.7969C39.8104 49.89 40.0053 50.1056 40.0848 50.4442C40.459 51.2729 40.6323 52.1359 40.6046 53.0335C40.4246 52.8974 40.2947 52.7248 40.2147 52.5156C39.9827 51.6548 39.7012 50.8133 39.3701 49.9911C39.4424 49.9415 39.4856 49.8768 39.5001 49.7969Z" fill="#141414"/>
<path fill-rule="evenodd" clip-rule="evenodd" d="M25.7257 50.8326C25.8196 50.8867 25.8845 50.9729 25.9207 51.0915C26.0548 52.1054 25.9681 53.098 25.6608 54.0692C25.0578 55.2825 24.8412 55.2394 25.0111 53.9397C25.3194 52.9146 25.5576 51.8789 25.7257 50.8326Z" fill="#080808"/>
<path fill-rule="evenodd" clip-rule="evenodd" d="M33.1328 51.4799C33.301 51.1381 33.4742 51.1381 33.6526 51.4799C33.5152 51.5325 33.3419 51.5325 33.1328 51.4799Z" fill="#202020"/>
<path fill-rule="evenodd" clip-rule="evenodd" d="M33.1328 51.4799C33.1939 51.9434 33.3672 52.0298 33.6526 51.7388C33.7627 51.9409 33.7194 52.1351 33.5227 52.3214C32.8557 52.2917 32.7257 52.0111 33.1328 51.4799Z" fill="#171717"/>
<path fill-rule="evenodd" clip-rule="evenodd" d="M50.0701 28.5152C50.0701 28.8294 50.0701 29.1436 50.0701 29.4578C49.7796 30.1143 49.4249 30.7427 49.0058 31.3429C45.5244 35.652 41.1227 38.6498 35.8006 40.3364C30.7277 41.7693 25.7872 41.4028 20.9792 39.2368C16.9522 37.3967 13.5491 34.7654 10.7699 31.3429C10.3508 30.7427 9.99602 30.1143 9.70557 29.4578C9.70557 29.1436 9.70557 28.8294 9.70557 28.5152C9.99602 27.8586 10.3508 27.2303 10.7699 26.6301C14.2512 22.321 18.6529 19.3232 23.9751 17.6366C29.0484 16.1983 33.9889 16.5649 38.7964 18.7362C42.8234 20.5763 46.2265 23.2076 49.0058 26.6301C49.4249 27.2303 49.7796 27.8586 50.0701 28.5152ZM29.336 19.2468C32.988 19.2662 36.4043 20.1695 39.5848 21.9566C42.4459 23.5236 44.903 25.5789 46.956 28.1225C47.1425 28.4002 47.3134 28.6882 47.4685 28.9865C46.3143 30.8044 44.8689 32.3622 43.1324 33.66C34.7875 40.1228 26.2731 40.3585 17.5893 34.3669C15.7722 33.1065 14.1823 31.6011 12.8196 29.8505C12.6331 29.5728 12.4623 29.2847 12.3072 28.9865C13.2511 27.489 14.4074 26.1668 15.776 25.0199C18.9069 22.3213 22.5071 20.5147 26.5767 19.6002C27.5025 19.4359 28.4223 19.3181 29.336 19.2468ZM27.365 22.8599C29.3211 22.7551 30.5168 23.6453 30.9521 25.5305C30.8732 27.9391 29.625 29.0518 27.2074 28.8687C25.3942 28.228 24.6452 26.9582 24.9605 25.0592C25.3515 23.8708 26.153 23.1376 27.365 22.8599Z" fill="black"/>
<path fill-rule="evenodd" clip-rule="evenodd" d="M29.7301 21.6031C32.8212 21.6824 35.0944 23.0701 36.5495 25.7661C37.9182 29.1327 37.3006 32.0781 34.6968 34.6025C31.918 36.6607 29.0011 36.8702 25.9459 35.2309C22.9149 33.0506 21.9032 30.1575 22.9107 26.5516C23.8731 24.0217 25.6731 22.4378 28.311 21.7995C28.7956 21.7337 29.2687 21.6683 29.7301 21.6031ZM27.365 22.8599C26.1529 23.1376 25.3514 23.8708 24.9605 25.0592C24.6452 26.9582 25.3941 28.228 27.2073 28.8687C29.6249 29.0518 30.8731 27.9391 30.9521 25.5305C30.5167 23.6454 29.3211 22.7551 27.365 22.8599Z" fill="black"/>
<path d="M27.8927 28.9706C29.596 28.9706 30.9768 27.5949 30.9768 25.8978C30.9768 24.2008 29.596 22.8251 27.8927 22.8251C26.1894 22.8251 24.8086 24.2008 24.8086 25.8978C24.8086 27.5949 26.1894 28.9706 27.8927 28.9706Z" fill="white"/>
</svg>
